<mxfile modified="2020-11-26T20:43:14.286Z" host="app.diagrams.net" agent="5.0 (Macintosh; Intel Mac OS X 10_15_6) AppleWebKit/605.1.15 (KHTML, like Gecko) Version/14.0.1 Safari/605.1.15" etag="PPJAC7jwY0HF-SQSI4Fk" version="13.10.4" type="github">
  <diagram id="Ht1M8jgEwFfnCIfOTk4-" name="Page-1">
    <mxGraphModel dx="723" dy="735" grid="1" gridSize="10" guides="1" tooltips="1" connect="1" arrows="1" fold="1" page="1" pageScale="1" pageWidth="827" pageHeight="1169" math="0" shadow="0">
      <root>
        <mxCell id="0" />
        <mxCell id="1" parent="0" />
        <mxCell id="VP3f3hf6EWBdvvArY4kQ-53" value="On-Premise Infrastructure&lt;br&gt;" style="points=[[0,0],[0.25,0],[0.5,0],[0.75,0],[1,0],[1,0.25],[1,0.5],[1,0.75],[1,1],[0.75,1],[0.5,1],[0.25,1],[0,1],[0,0.75],[0,0.5],[0,0.25]];outlineConnect=0;gradientColor=none;html=1;whiteSpace=wrap;fontSize=12;fontStyle=0;shape=mxgraph.aws4.group;grIcon=mxgraph.aws4.group_corporate_data_center;strokeColor=#5A6C86;fillColor=none;verticalAlign=top;align=left;spacingLeft=30;fontColor=#5A6C86;dashed=0;" parent="1" vertex="1">
          <mxGeometry x="824.82" y="430" width="185.18" height="270" as="geometry" />
        </mxCell>
        <mxCell id="UEzPUAAOIrF-is8g5C7q-2" value="AWS Cloud" style="points=[[0,0],[0.25,0],[0.5,0],[0.75,0],[1,0],[1,0.25],[1,0.5],[1,0.75],[1,1],[0.75,1],[0.5,1],[0.25,1],[0,1],[0,0.75],[0,0.5],[0,0.25]];outlineConnect=0;gradientColor=none;html=1;whiteSpace=wrap;fontSize=12;fontStyle=0;shape=mxgraph.aws4.group;grIcon=mxgraph.aws4.group_aws_cloud_alt;strokeColor=#232F3E;fillColor=none;verticalAlign=top;align=left;spacingLeft=30;fontColor=#232F3E;dashed=0;" parent="1" vertex="1">
          <mxGeometry x="270" y="10" width="530" height="740" as="geometry" />
        </mxCell>
        <mxCell id="VP3f3hf6EWBdvvArY4kQ-20" value="" style="whiteSpace=wrap;html=1;dashed=0;fontColor=#AAB7B8;fontStyle=0;align=left;verticalAlign=top;strokeColor=#248814;fillColor=none;gradientColor=none;spacingLeft=30;" parent="1" vertex="1">
          <mxGeometry x="290" y="50" width="380" height="680" as="geometry" />
        </mxCell>
        <mxCell id="UEzPUAAOIrF-is8g5C7q-1" value="Github" style="points=[[0,0],[0.25,0],[0.5,0],[0.75,0],[1,0],[1,0.25],[1,0.5],[1,0.75],[1,1],[0.75,1],[0.5,1],[0.25,1],[0,1],[0,0.75],[0,0.5],[0,0.25]];outlineConnect=0;gradientColor=none;html=1;whiteSpace=wrap;fontSize=12;fontStyle=0;shape=mxgraph.aws4.group;grIcon=mxgraph.aws4.group_corporate_data_center;strokeColor=#5A6C86;fillColor=none;verticalAlign=top;align=left;spacingLeft=30;fontColor=#5A6C86;dashed=0;" parent="1" vertex="1">
          <mxGeometry x="11.5" y="14.5" width="238.5" height="735.5" as="geometry" />
        </mxCell>
        <mxCell id="xOeuL4uxIWWJgxxE-LD3-7" style="edgeStyle=orthogonalEdgeStyle;rounded=0;orthogonalLoop=1;jettySize=auto;html=1;" parent="1" source="UEzPUAAOIrF-is8g5C7q-8" target="UEzPUAAOIrF-is8g5C7q-13" edge="1">
          <mxGeometry relative="1" as="geometry">
            <Array as="points">
              <mxPoint x="280" y="139" />
              <mxPoint x="280" y="139" />
            </Array>
          </mxGeometry>
        </mxCell>
        <mxCell id="xOeuL4uxIWWJgxxE-LD3-8" value="event json" style="edgeLabel;html=1;align=center;verticalAlign=middle;resizable=0;points=[];" parent="xOeuL4uxIWWJgxxE-LD3-7" vertex="1" connectable="0">
          <mxGeometry x="0.1588" relative="1" as="geometry">
            <mxPoint x="-21.96" as="offset" />
          </mxGeometry>
        </mxCell>
        <mxCell id="UEzPUAAOIrF-is8g5C7q-8" value="Events" style="outlineConnect=0;fontColor=#232F3E;gradientColor=none;fillColor=#277116;strokeColor=none;dashed=0;verticalLabelPosition=bottom;verticalAlign=top;align=center;html=1;fontSize=12;fontStyle=0;aspect=fixed;pointerEvents=1;shape=mxgraph.aws4.iot_analytics_channel;" parent="1" vertex="1">
          <mxGeometry x="160" y="100.49999999999983" width="65" height="78" as="geometry" />
        </mxCell>
        <mxCell id="UEzPUAAOIrF-is8g5C7q-15" value="docker" style="outlineConnect=0;fontColor=#232F3E;gradientColor=none;fillColor=#D05C17;strokeColor=none;dashed=0;verticalLabelPosition=bottom;verticalAlign=top;align=center;html=1;fontSize=12;fontStyle=0;aspect=fixed;pointerEvents=1;shape=mxgraph.aws4.container_1;labelBackgroundColor=#ffffff;" parent="1" vertex="1">
          <mxGeometry x="290.0000000000001" y="49.999999999999886" width="44" height="28" as="geometry" />
        </mxCell>
        <mxCell id="VP3f3hf6EWBdvvArY4kQ-1" value="MS Teams (Outlook Cloud)" style="points=[[0,0],[0.25,0],[0.5,0],[0.75,0],[1,0],[1,0.25],[1,0.5],[1,0.75],[1,1],[0.75,1],[0.5,1],[0.25,1],[0,1],[0,0.75],[0,0.5],[0,0.25]];outlineConnect=0;gradientColor=none;html=1;whiteSpace=wrap;fontSize=12;fontStyle=0;shape=mxgraph.aws4.group;grIcon=mxgraph.aws4.group_corporate_data_center;strokeColor=#5A6C86;fillColor=none;verticalAlign=top;align=left;spacingLeft=30;fontColor=#5A6C86;dashed=0;" parent="1" vertex="1">
          <mxGeometry x="824.82" y="10" width="185.18" height="410" as="geometry" />
        </mxCell>
        <mxCell id="xOeuL4uxIWWJgxxE-LD3-9" style="edgeStyle=orthogonalEdgeStyle;rounded=0;orthogonalLoop=1;jettySize=auto;html=1;" parent="1" source="VP3f3hf6EWBdvvArY4kQ-22" target="VP3f3hf6EWBdvvArY4kQ-71" edge="1">
          <mxGeometry relative="1" as="geometry" />
        </mxCell>
        <mxCell id="VP3f3hf6EWBdvvArY4kQ-22" value="push" style="outlineConnect=0;fontColor=#232F3E;gradientColor=#60A337;gradientDirection=north;fillColor=#277116;strokeColor=#ffffff;dashed=0;verticalLabelPosition=bottom;verticalAlign=top;align=center;html=1;fontSize=12;fontStyle=0;aspect=fixed;shape=mxgraph.aws4.resourceIcon;resIcon=mxgraph.aws4.iot_analytics;labelBackgroundColor=#ffffff;spacingTop=6;" parent="1" vertex="1">
          <mxGeometry x="458.99999999999966" y="492" width="78" height="78" as="geometry" />
        </mxCell>
        <mxCell id="VP3f3hf6EWBdvvArY4kQ-57" value="" style="edgeStyle=orthogonalEdgeStyle;rounded=0;orthogonalLoop=1;jettySize=auto;html=1;" parent="1" source="VP3f3hf6EWBdvvArY4kQ-73" target="VP3f3hf6EWBdvvArY4kQ-70" edge="1">
          <mxGeometry relative="1" as="geometry">
            <mxPoint x="969.9999999999993" y="423.5" as="targetPoint" />
          </mxGeometry>
        </mxCell>
        <mxCell id="VP3f3hf6EWBdvvArY4kQ-36" value="" style="edgeStyle=orthogonalEdgeStyle;rounded=0;orthogonalLoop=1;jettySize=auto;html=1;" parent="1" source="UEzPUAAOIrF-is8g5C7q-13" target="VP3f3hf6EWBdvvArY4kQ-34" edge="1">
          <mxGeometry relative="1" as="geometry" />
        </mxCell>
        <mxCell id="0Zadh_FYRnbxkLhOL3jD-2" style="edgeStyle=orthogonalEdgeStyle;rounded=0;orthogonalLoop=1;jettySize=auto;html=1;" edge="1" parent="1" source="UEzPUAAOIrF-is8g5C7q-13" target="VP3f3hf6EWBdvvArY4kQ-37">
          <mxGeometry relative="1" as="geometry">
            <Array as="points">
              <mxPoint x="440" y="140" />
              <mxPoint x="440" y="427" />
            </Array>
          </mxGeometry>
        </mxCell>
        <mxCell id="0Zadh_FYRnbxkLhOL3jD-3" style="edgeStyle=orthogonalEdgeStyle;rounded=0;orthogonalLoop=1;jettySize=auto;html=1;" edge="1" parent="1" source="UEzPUAAOIrF-is8g5C7q-13" target="VP3f3hf6EWBdvvArY4kQ-22">
          <mxGeometry relative="1" as="geometry">
            <mxPoint x="450" y="530" as="targetPoint" />
            <Array as="points">
              <mxPoint x="440" y="140" />
              <mxPoint x="440" y="531" />
            </Array>
          </mxGeometry>
        </mxCell>
        <mxCell id="UEzPUAAOIrF-is8g5C7q-13" value="Webhook Framework" style="outlineConnect=0;fontColor=#232F3E;gradientColor=#60A337;gradientDirection=north;fillColor=#277116;strokeColor=#ffffff;dashed=0;verticalLabelPosition=bottom;verticalAlign=top;align=center;html=1;fontSize=12;fontStyle=0;aspect=fixed;shape=mxgraph.aws4.resourceIcon;resIcon=mxgraph.aws4.iot_analytics;labelBackgroundColor=#ffffff;spacingTop=6;" parent="1" vertex="1">
          <mxGeometry x="339.99999999999966" y="100.49999999999994" width="78" height="78" as="geometry" />
        </mxCell>
        <mxCell id="VP3f3hf6EWBdvvArY4kQ-45" value="" style="edgeStyle=orthogonalEdgeStyle;rounded=0;orthogonalLoop=1;jettySize=auto;html=1;" parent="1" source="VP3f3hf6EWBdvvArY4kQ-37" target="VP3f3hf6EWBdvvArY4kQ-44" edge="1">
          <mxGeometry relative="1" as="geometry" />
        </mxCell>
        <mxCell id="VP3f3hf6EWBdvvArY4kQ-37" value="..." style="outlineConnect=0;fontColor=#232F3E;gradientColor=#60A337;gradientDirection=north;fillColor=#277116;strokeColor=#ffffff;dashed=0;verticalLabelPosition=bottom;verticalAlign=top;align=center;html=1;fontSize=12;fontStyle=0;aspect=fixed;shape=mxgraph.aws4.resourceIcon;resIcon=mxgraph.aws4.iot_analytics;labelBackgroundColor=#ffffff;spacingTop=6;" parent="1" vertex="1">
          <mxGeometry x="458.99999999999966" y="387.99999999999994" width="78" height="78" as="geometry" />
        </mxCell>
        <mxCell id="VP3f3hf6EWBdvvArY4kQ-44" value="..." style="outlineConnect=0;fontColor=#232F3E;gradientColor=#60A337;gradientDirection=north;fillColor=#277116;strokeColor=#ffffff;dashed=0;verticalLabelPosition=bottom;verticalAlign=top;align=center;html=1;fontSize=12;fontStyle=0;aspect=fixed;shape=mxgraph.aws4.resourceIcon;resIcon=mxgraph.aws4.iot_analytics;labelBackgroundColor=#ffffff;spacingTop=6;" parent="1" vertex="1">
          <mxGeometry x="699.9999999999997" y="387.99999999999994" width="78" height="78" as="geometry" />
        </mxCell>
        <mxCell id="VP3f3hf6EWBdvvArY4kQ-49" value="" style="edgeStyle=orthogonalEdgeStyle;rounded=0;orthogonalLoop=1;jettySize=auto;html=1;" parent="1" source="VP3f3hf6EWBdvvArY4kQ-34" target="VP3f3hf6EWBdvvArY4kQ-72" edge="1">
          <mxGeometry relative="1" as="geometry">
            <mxPoint x="969.9999999999993" y="139.5" as="targetPoint" />
          </mxGeometry>
        </mxCell>
        <mxCell id="VP3f3hf6EWBdvvArY4kQ-63" value="message json" style="edgeLabel;html=1;align=center;verticalAlign=middle;resizable=0;points=[];" parent="VP3f3hf6EWBdvvArY4kQ-49" vertex="1" connectable="0">
          <mxGeometry x="0.1099" y="-2" relative="1" as="geometry">
            <mxPoint x="12" y="-2" as="offset" />
          </mxGeometry>
        </mxCell>
        <mxCell id="xOeuL4uxIWWJgxxE-LD3-16" style="edgeStyle=orthogonalEdgeStyle;rounded=0;orthogonalLoop=1;jettySize=auto;html=1;" parent="1" source="VP3f3hf6EWBdvvArY4kQ-34" target="xOeuL4uxIWWJgxxE-LD3-13" edge="1">
          <mxGeometry relative="1" as="geometry">
            <Array as="points">
              <mxPoint x="619" y="140" />
              <mxPoint x="619" y="209" />
            </Array>
          </mxGeometry>
        </mxCell>
        <mxCell id="xOeuL4uxIWWJgxxE-LD3-17" style="edgeStyle=orthogonalEdgeStyle;rounded=0;orthogonalLoop=1;jettySize=auto;html=1;" parent="1" source="VP3f3hf6EWBdvvArY4kQ-34" target="xOeuL4uxIWWJgxxE-LD3-14" edge="1">
          <mxGeometry relative="1" as="geometry">
            <Array as="points">
              <mxPoint x="620" y="140" />
              <mxPoint x="620" y="297" />
            </Array>
          </mxGeometry>
        </mxCell>
        <mxCell id="VP3f3hf6EWBdvvArY4kQ-34" value="all" style="outlineConnect=0;fontColor=#232F3E;gradientColor=#60A337;gradientDirection=north;fillColor=#277116;strokeColor=#ffffff;dashed=0;verticalLabelPosition=bottom;verticalAlign=top;align=center;html=1;fontSize=12;fontStyle=0;aspect=fixed;shape=mxgraph.aws4.resourceIcon;resIcon=mxgraph.aws4.iot_analytics;labelBackgroundColor=#ffffff;spacingTop=6;" parent="1" vertex="1">
          <mxGeometry x="458.99999999999966" y="100.49999999999994" width="78" height="78" as="geometry" />
        </mxCell>
        <mxCell id="xOeuL4uxIWWJgxxE-LD3-6" style="edgeStyle=orthogonalEdgeStyle;rounded=0;orthogonalLoop=1;jettySize=auto;html=1;" parent="1" source="VP3f3hf6EWBdvvArY4kQ-68" target="UEzPUAAOIrF-is8g5C7q-8" edge="1">
          <mxGeometry relative="1" as="geometry" />
        </mxCell>
        <mxCell id="VP3f3hf6EWBdvvArY4kQ-68" value="Repository" style="outlineConnect=0;fontColor=#232F3E;gradientColor=none;fillColor=#232F3E;strokeColor=none;dashed=0;verticalLabelPosition=bottom;verticalAlign=top;align=center;html=1;fontSize=12;fontStyle=0;aspect=fixed;pointerEvents=1;shape=mxgraph.aws4.external_sdk;" parent="1" vertex="1">
          <mxGeometry x="40" y="100.5" width="68" height="78" as="geometry" />
        </mxCell>
        <mxCell id="VP3f3hf6EWBdvvArY4kQ-70" value="archive backup files" style="outlineConnect=0;fontColor=#232F3E;gradientColor=none;fillColor=#277116;strokeColor=none;dashed=0;verticalLabelPosition=bottom;verticalAlign=top;align=center;html=1;fontSize=12;fontStyle=0;aspect=fixed;pointerEvents=1;shape=mxgraph.aws4.vault;" parent="1" vertex="1">
          <mxGeometry x="888" y="492.01" width="62" height="78" as="geometry" />
        </mxCell>
        <mxCell id="VP3f3hf6EWBdvvArY4kQ-79" value="" style="edgeStyle=orthogonalEdgeStyle;rounded=0;orthogonalLoop=1;jettySize=auto;html=1;" parent="1" source="VP3f3hf6EWBdvvArY4kQ-71" target="VP3f3hf6EWBdvvArY4kQ-80" edge="1">
          <mxGeometry relative="1" as="geometry" />
        </mxCell>
        <mxCell id="VP3f3hf6EWBdvvArY4kQ-71" value="inspect repo" style="outlineConnect=0;fontColor=#232F3E;gradientColor=none;fillColor=#C7131F;strokeColor=none;dashed=0;verticalLabelPosition=bottom;verticalAlign=top;align=center;html=1;fontSize=12;fontStyle=0;aspect=fixed;pointerEvents=1;shape=mxgraph.aws4.agent;" parent="1" vertex="1">
          <mxGeometry x="570" y="621" width="78" height="74" as="geometry" />
        </mxCell>
        <mxCell id="xOeuL4uxIWWJgxxE-LD3-19" style="edgeStyle=orthogonalEdgeStyle;rounded=0;orthogonalLoop=1;jettySize=auto;html=1;entryX=0.1;entryY=0.5;entryDx=0;entryDy=0;entryPerimeter=0;" parent="1" source="VP3f3hf6EWBdvvArY4kQ-72" target="xOeuL4uxIWWJgxxE-LD3-18" edge="1">
          <mxGeometry relative="1" as="geometry">
            <Array as="points">
              <mxPoint x="1040" y="140" />
              <mxPoint x="1040" y="209" />
            </Array>
          </mxGeometry>
        </mxCell>
        <mxCell id="VP3f3hf6EWBdvvArY4kQ-72" value="Message to channel" style="outlineConnect=0;fontColor=#232F3E;gradientColor=#4D72F3;gradientDirection=north;fillColor=#3334B9;strokeColor=#ffffff;dashed=0;verticalLabelPosition=bottom;verticalAlign=top;align=center;html=1;fontSize=12;fontStyle=0;aspect=fixed;shape=mxgraph.aws4.resourceIcon;resIcon=mxgraph.aws4.customer_engagement;" parent="1" vertex="1">
          <mxGeometry x="880" y="100.5" width="78" height="78" as="geometry" />
        </mxCell>
        <mxCell id="xOeuL4uxIWWJgxxE-LD3-10" style="edgeStyle=orthogonalEdgeStyle;rounded=0;orthogonalLoop=1;jettySize=auto;html=1;" parent="1" source="VP3f3hf6EWBdvvArY4kQ-80" target="xOeuL4uxIWWJgxxE-LD3-2" edge="1">
          <mxGeometry relative="1" as="geometry">
            <Array as="points">
              <mxPoint x="74" y="658" />
            </Array>
          </mxGeometry>
        </mxCell>
        <mxCell id="xOeuL4uxIWWJgxxE-LD3-23" style="edgeStyle=orthogonalEdgeStyle;rounded=0;orthogonalLoop=1;jettySize=auto;html=1;" parent="1" source="VP3f3hf6EWBdvvArY4kQ-80" target="VP3f3hf6EWBdvvArY4kQ-22" edge="1">
          <mxGeometry relative="1" as="geometry">
            <Array as="points">
              <mxPoint x="349" y="585" />
              <mxPoint x="500" y="585" />
            </Array>
          </mxGeometry>
        </mxCell>
        <mxCell id="VP3f3hf6EWBdvvArY4kQ-80" value="score repo" style="outlineConnect=0;fontColor=#232F3E;gradientColor=none;fillColor=#C7131F;strokeColor=none;dashed=0;verticalLabelPosition=bottom;verticalAlign=top;align=center;html=1;fontSize=12;fontStyle=0;aspect=fixed;pointerEvents=1;shape=mxgraph.aws4.permissions;" parent="1" vertex="1">
          <mxGeometry x="318.79" y="620" width="60.41" height="76" as="geometry" />
        </mxCell>
        <mxCell id="VP3f3hf6EWBdvvArY4kQ-73" value="Firewall" style="outlineConnect=0;fontColor=#232F3E;gradientColor=none;fillColor=#C7131F;strokeColor=none;dashed=0;verticalLabelPosition=bottom;verticalAlign=top;align=center;html=1;fontSize=12;fontStyle=0;aspect=fixed;pointerEvents=1;shape=mxgraph.aws4.filtering_rule;" parent="1" vertex="1">
          <mxGeometry x="810" y="510.8299999999999" width="40.37" height="40.37" as="geometry" />
        </mxCell>
        <mxCell id="xOeuL4uxIWWJgxxE-LD3-4" style="edgeStyle=orthogonalEdgeStyle;rounded=0;orthogonalLoop=1;jettySize=auto;html=1;" parent="1" source="xOeuL4uxIWWJgxxE-LD3-1" target="UEzPUAAOIrF-is8g5C7q-8" edge="1">
          <mxGeometry relative="1" as="geometry">
            <Array as="points">
              <mxPoint x="140" y="249" />
              <mxPoint x="140" y="140" />
            </Array>
          </mxGeometry>
        </mxCell>
        <mxCell id="xOeuL4uxIWWJgxxE-LD3-1" value="Repository" style="outlineConnect=0;fontColor=#232F3E;gradientColor=none;fillColor=#232F3E;strokeColor=none;dashed=0;verticalLabelPosition=bottom;verticalAlign=top;align=center;html=1;fontSize=12;fontStyle=0;aspect=fixed;pointerEvents=1;shape=mxgraph.aws4.external_sdk;" parent="1" vertex="1">
          <mxGeometry x="40" y="210" width="68" height="78" as="geometry" />
        </mxCell>
        <mxCell id="xOeuL4uxIWWJgxxE-LD3-3" style="edgeStyle=orthogonalEdgeStyle;rounded=0;orthogonalLoop=1;jettySize=auto;html=1;" parent="1" source="xOeuL4uxIWWJgxxE-LD3-2" target="UEzPUAAOIrF-is8g5C7q-8" edge="1">
          <mxGeometry relative="1" as="geometry">
            <Array as="points">
              <mxPoint x="140" y="359" />
              <mxPoint x="140" y="140" />
            </Array>
          </mxGeometry>
        </mxCell>
        <mxCell id="xOeuL4uxIWWJgxxE-LD3-2" value="Repository" style="outlineConnect=0;fontColor=#232F3E;gradientColor=none;fillColor=#232F3E;strokeColor=none;dashed=0;verticalLabelPosition=bottom;verticalAlign=top;align=center;html=1;fontSize=12;fontStyle=0;aspect=fixed;pointerEvents=1;shape=mxgraph.aws4.external_sdk;" parent="1" vertex="1">
          <mxGeometry x="40" y="320" width="68" height="78" as="geometry" />
        </mxCell>
        <mxCell id="xOeuL4uxIWWJgxxE-LD3-12" style="edgeStyle=orthogonalEdgeStyle;rounded=0;orthogonalLoop=1;jettySize=auto;html=1;" parent="1" source="VP3f3hf6EWBdvvArY4kQ-69" target="VP3f3hf6EWBdvvArY4kQ-73" edge="1">
          <mxGeometry relative="1" as="geometry" />
        </mxCell>
        <mxCell id="VP3f3hf6EWBdvvArY4kQ-69" value="" style="outlineConnect=0;fontColor=#232F3E;gradientColor=#60A337;gradientDirection=north;fillColor=#277116;strokeColor=#ffffff;dashed=0;verticalLabelPosition=bottom;verticalAlign=top;align=center;html=1;fontSize=12;fontStyle=0;aspect=fixed;shape=mxgraph.aws4.resourceIcon;resIcon=mxgraph.aws4.s3;" parent="1" vertex="1">
          <mxGeometry x="700" y="492" width="78" height="78" as="geometry" />
        </mxCell>
        <mxCell id="xOeuL4uxIWWJgxxE-LD3-11" value="" style="edgeStyle=orthogonalEdgeStyle;rounded=0;orthogonalLoop=1;jettySize=auto;html=1;" parent="1" source="VP3f3hf6EWBdvvArY4kQ-22" target="VP3f3hf6EWBdvvArY4kQ-69" edge="1">
          <mxGeometry relative="1" as="geometry">
            <mxPoint x="536.9999999999995" y="423.49" as="sourcePoint" />
            <mxPoint x="759.9999999999995" y="423.49" as="targetPoint" />
          </mxGeometry>
        </mxCell>
        <mxCell id="xOeuL4uxIWWJgxxE-LD3-20" style="edgeStyle=orthogonalEdgeStyle;rounded=0;orthogonalLoop=1;jettySize=auto;html=1;entryX=0.1;entryY=0.5;entryDx=0;entryDy=0;entryPerimeter=0;" parent="1" source="xOeuL4uxIWWJgxxE-LD3-13" target="xOeuL4uxIWWJgxxE-LD3-18" edge="1">
          <mxGeometry relative="1" as="geometry">
            <Array as="points">
              <mxPoint x="1077" y="209" />
            </Array>
          </mxGeometry>
        </mxCell>
        <mxCell id="xOeuL4uxIWWJgxxE-LD3-13" value="RSS Feed" style="outlineConnect=0;fontColor=#232F3E;gradientColor=#4D72F3;gradientDirection=north;fillColor=#3334B9;strokeColor=#ffffff;dashed=0;verticalLabelPosition=bottom;verticalAlign=top;align=center;html=1;fontSize=12;fontStyle=0;aspect=fixed;shape=mxgraph.aws4.resourceIcon;resIcon=mxgraph.aws4.customer_engagement;" parent="1" vertex="1">
          <mxGeometry x="700" y="170" width="78" height="78" as="geometry" />
        </mxCell>
        <mxCell id="xOeuL4uxIWWJgxxE-LD3-21" style="edgeStyle=orthogonalEdgeStyle;rounded=0;orthogonalLoop=1;jettySize=auto;html=1;entryX=0.1;entryY=0.5;entryDx=0;entryDy=0;entryPerimeter=0;" parent="1" source="xOeuL4uxIWWJgxxE-LD3-14" target="xOeuL4uxIWWJgxxE-LD3-18" edge="1">
          <mxGeometry relative="1" as="geometry">
            <Array as="points">
              <mxPoint x="1040" y="317" />
              <mxPoint x="1040" y="209" />
            </Array>
          </mxGeometry>
        </mxCell>
        <mxCell id="xOeuL4uxIWWJgxxE-LD3-14" value="E-Mail" style="outlineConnect=0;fontColor=#232F3E;gradientColor=#4D72F3;gradientDirection=north;fillColor=#3334B9;strokeColor=#ffffff;dashed=0;verticalLabelPosition=bottom;verticalAlign=top;align=center;html=1;fontSize=12;fontStyle=0;aspect=fixed;shape=mxgraph.aws4.resourceIcon;resIcon=mxgraph.aws4.customer_engagement;" parent="1" vertex="1">
          <mxGeometry x="700" y="278" width="78" height="78" as="geometry" />
        </mxCell>
        <mxCell id="xOeuL4uxIWWJgxxE-LD3-18" value="" style="shape=actor;whiteSpace=wrap;html=1;" parent="1" vertex="1">
          <mxGeometry x="1080" y="154" width="73.33" height="110" as="geometry" />
        </mxCell>
      </root>
    </mxGraphModel>
  </diagram>
</mxfile>
